<?xml version="1.0" encoding="utf-8"?>
<!-- Generator: Adobe Illustrator 21.1.0, SVG Export Plug-In . SVG Version: 6.00 Build 0)  -->
<svg version="1.1" id="Layer_1" xmlns="http://www.w3.org/2000/svg" xmlns:xlink="http://www.w3.org/1999/xlink" x="0px" y="0px"
	 viewBox="0 0 1500 250" style="enable-background:new 0 0 1500 250;" xml:space="preserve">
<style type="text/css">
	.st0{enable-background:new    ;}
	.st1{fill:#FFFFFF;}
</style>
<g class="st0">
	<path class="st1" d="M170.8,30.2c1.9-1.8,4.2-2.8,6.9-2.8c2.9,0,5.2,0.9,7.1,2.8c1.8,1.8,2.8,4.2,2.8,7v176.4c0,2.7-0.9,5-2.8,6.9
		c-1.9,1.9-4.2,2.9-7.1,2.9c-2.7,0-5-1-6.9-2.9c-1.9-1.9-2.9-4.2-2.9-6.9v-80.6H44.9v80.6c0,2.7-0.9,5-2.8,6.9
		c-1.9,1.9-4.2,2.9-7.1,2.9c-2.7,0-5-1-6.9-2.9c-1.9-1.9-2.9-4.2-2.9-6.9V37.3c0-2.8,1-5.2,2.9-7c1.9-1.8,4.2-2.8,6.9-2.8
		c2.9,0,5.2,0.9,7.1,2.8c1.8,1.8,2.8,4.2,2.8,7v78.3h123.1V37.3C167.9,34.4,168.9,32.1,170.8,30.2z"/>
	<path class="st1" d="M334,94.1c10.7,6.1,19.1,14.5,25.2,25.2c6.1,10.7,9.2,22.6,9.2,35.6v59c0,2.7-0.9,4.9-2.8,6.8
		c-1.9,1.8-4.2,2.8-7.1,2.8c-2.9,0-5.2-0.9-7.1-2.6c-1.9-1.8-2.8-4.1-2.8-6.9v-15.1c-5.9,8-13.4,14.3-22.4,18.9
		c-9.1,4.6-19.1,6.9-30,6.9c-12.8,0-24.3-3.1-34.7-9.2c-10.3-6.1-18.5-14.5-24.5-25.1c-6-10.6-9-22.5-9-35.5c0-13,3.1-24.9,9.2-35.6
		c6.1-10.7,14.5-19.1,25.2-25.2c10.7-6.1,22.6-9.2,35.7-9.2C311.4,84.9,323.3,88,334,94.1z M324.3,200.4
		c7.7-4.5,13.8-10.7,18.3-18.7c4.5-7.9,6.7-16.9,6.7-26.7c0-9.9-2.2-18.8-6.7-26.7c-4.5-7.9-10.6-14.2-18.3-18.8
		c-7.7-4.6-16.4-6.9-26-6.9c-9.6,0-18.3,2.3-26.1,6.9c-7.8,4.6-14,10.9-18.4,18.8c-4.5,7.9-6.7,16.9-6.7,26.7
		c0,9.9,2.2,18.8,6.7,26.7c4.5,7.9,10.6,14.2,18.4,18.7c7.8,4.5,16.5,6.8,26.1,6.8C307.9,207.2,316.5,204.9,324.3,200.4z"/>
	<path class="st1" d="M511.1,214.7c0,5.9-2.9,8.8-8.8,8.8h-93.6c-5.9,0-8.8-2.9-8.8-8.8c0-2.8,0.6-4.9,1.8-6.3l82.7-104.6h-76.7
		c-5.9,0-8.8-2.9-8.8-8.8c0-5.9,2.9-8.8,8.8-8.8h93.6c5.9,0,8.8,2.9,8.8,8.8c0,2.7-0.7,4.9-2,6.5l-82,104.4h76.2
		C508.2,205.9,511.1,208.8,511.1,214.7z"/>
	<path class="st1" d="M551.5,89c1.8-1.8,4.2-2.8,7.1-2.8c2.9,0,5.2,0.9,6.9,2.8c1.8,1.8,2.6,4.2,2.6,7v117.7c0,2.8-0.9,5.2-2.6,7
		c-1.8,1.8-4.1,2.8-6.9,2.8c-2.9,0-5.2-0.9-7.1-2.8c-1.9-1.8-2.8-4.2-2.8-7V96C548.7,93.1,549.6,90.8,551.5,89z"/>
	<path class="st1" d="M696.6,87.5c4.1,1.8,6.2,4.4,6.2,7.8c0,1-0.1,1.8-0.3,2.3c-0.7,2.3-1.7,3.9-3.2,4.8c-1.4,0.8-3.4,1.3-5.9,1.3
		c-1.5,0-4.1-0.2-7.8-0.5c-1.3-0.2-3.4-0.3-6.1-0.3c-12.6,0-22.9,3.3-30.9,10c-8,6.7-12,15.4-12,26.1v75c0,3-0.8,5.4-2.5,7
		c-1.7,1.7-4,2.5-7.1,2.5s-5.4-0.8-7.1-2.5c-1.7-1.7-2.5-4-2.5-7V95.7c0-3,0.8-5.4,2.5-7c1.7-1.7,4-2.5,7.1-2.5s5.4,0.8,7.1,2.5
		c1.7,1.7,2.5,4,2.5,7v11c4.9-7,11.1-12.5,18.7-16.3c7.6-3.8,15.7-5.8,24.5-5.8C686.9,84.7,692.5,85.6,696.6,87.5z"/>
	<path class="st1" d="M833.1,109c1.3,1.5,2,3.3,2,5.3c0,2.7-1.4,5-4.3,7c-1.5,1-3.1,1.5-4.8,1.5c-2.5,0-5-1.3-7.3-3.8
		c-5-5.5-10.6-9.7-16.6-12.4c-6.1-2.8-12.8-4.1-20.2-4.1c-9.2,0-17.5,2.2-24.7,6.7c-7.2,4.4-12.8,10.7-16.8,18.7
		c-4,8-5.9,17.1-5.9,27.1c0,9.9,2.1,18.8,6.3,26.7c4.2,7.9,10.1,14.2,17.7,18.7c7.6,4.5,16.2,6.8,26,6.8c13.4,0,24.3-3.6,32.5-10.8
		c2.2-1.8,4.5-2.8,6.8-2.8c2,0,3.9,0.7,5.5,2c2.4,2,3.5,4.3,3.5,6.8c0,2.2-0.8,4-2.5,5.5c-12.1,11.2-27.4,16.8-45.9,16.8
		c-13.1,0-24.9-3.1-35.3-9.2c-10.4-6.1-18.6-14.5-24.6-25.1c-6-10.6-9-22.5-9-35.5c0-13.4,2.9-25.4,8.6-36
		c5.7-10.6,13.6-18.9,23.7-25c10.1-6,21.4-9,34-9C802.9,84.9,820,93,833.1,109z"/>
	<path class="st1" d="M971.7,94.1c10.7,6.1,19.1,14.5,25.2,25.2c6.1,10.7,9.2,22.6,9.2,35.6v59c0,2.7-0.9,4.9-2.8,6.8
		c-1.9,1.8-4.2,2.8-7.1,2.8c-2.9,0-5.2-0.9-7.1-2.6c-1.9-1.8-2.8-4.1-2.8-6.9v-15.1c-5.9,8-13.4,14.3-22.4,18.9
		c-9.1,4.6-19.1,6.9-30,6.9c-12.8,0-24.3-3.1-34.7-9.2c-10.3-6.1-18.5-14.5-24.5-25.1c-6-10.6-9-22.5-9-35.5c0-13,3.1-24.9,9.2-35.6
		c6.1-10.7,14.5-19.1,25.2-25.2c10.7-6.1,22.6-9.2,35.7-9.2S961,88,971.7,94.1z M962,200.4c7.7-4.5,13.8-10.7,18.3-18.7
		c4.5-7.9,6.7-16.9,6.7-26.7c0-9.9-2.2-18.8-6.7-26.7c-4.5-7.9-10.6-14.2-18.3-18.8c-7.7-4.6-16.4-6.9-26-6.9s-18.3,2.3-26.1,6.9
		c-7.8,4.6-14,10.9-18.4,18.8c-4.5,7.9-6.7,16.9-6.7,26.7c0,9.9,2.2,18.8,6.7,26.7c4.5,7.9,10.6,14.2,18.4,18.7
		c7.8,4.5,16.5,6.8,26.1,6.8S954.2,204.9,962,200.4z"/>
	<path class="st1" d="M1149.1,95c0,1-0.3,2.2-0.8,3.5l-55.2,118.4c-2.2,4.4-5.4,6.5-9.6,6.5c-4,0-7.1-2.2-9.1-6.5l-56-118.2
		c-0.5-1-0.8-2.2-0.8-3.5c0-3.5,1.8-6.2,5.5-8c1.2-0.7,2.5-1,4-1c1.7,0,3.2,0.4,4.7,1.3c1.4,0.8,2.5,2.1,3.2,3.8l48.4,104.4
		l47.9-104.4c0.7-1.7,1.8-3,3.3-3.9c1.5-0.9,3.2-1.4,5-1.4c1.5,0,2.9,0.3,4,1C1147.3,88.6,1149.1,91.3,1149.1,95z"/>
	<path class="st1" d="M1269.2,94.1c10.7,6.1,19.1,14.5,25.2,25.2c6.1,10.7,9.2,22.6,9.2,35.6v59c0,2.7-0.9,4.9-2.8,6.8
		c-1.9,1.8-4.2,2.8-7.1,2.8c-2.9,0-5.2-0.9-7.1-2.6c-1.9-1.8-2.8-4.1-2.8-6.9v-15.1c-5.9,8-13.4,14.3-22.4,18.9
		c-9.1,4.6-19.1,6.9-30,6.9c-12.8,0-24.3-3.1-34.7-9.2c-10.3-6.1-18.5-14.5-24.5-25.1c-6-10.6-9-22.5-9-35.5c0-13,3.1-24.9,9.2-35.6
		c6.1-10.7,14.5-19.1,25.2-25.2c10.7-6.1,22.6-9.2,35.7-9.2S1258.5,88,1269.2,94.1z M1259.5,200.4c7.7-4.5,13.8-10.7,18.3-18.7
		c4.5-7.9,6.7-16.9,6.7-26.7c0-9.9-2.2-18.8-6.7-26.7c-4.5-7.9-10.6-14.2-18.3-18.8c-7.7-4.6-16.4-6.9-26-6.9s-18.3,2.3-26.1,6.9
		c-7.8,4.6-14,10.9-18.4,18.8c-4.5,7.9-6.7,16.9-6.7,26.7c0,9.9,2.2,18.8,6.7,26.7c4.5,7.9,10.6,14.2,18.4,18.7
		c7.8,4.5,16.5,6.8,26.1,6.8S1251.8,204.9,1259.5,200.4z"/>
	<path class="st1" d="M1341.7,93.5V37.3c0-2.8,0.9-5.2,2.6-7c1.8-1.8,4.1-2.8,6.9-2.8c2.9,0,5.2,0.9,7.1,2.8c1.8,1.8,2.8,4.2,2.8,7
		v73.5c5.9-8,13.4-14.3,22.4-18.9c9.1-4.6,19.1-6.9,30-6.9c12.8,0,24.3,3.1,34.7,9.2c10.3,6.1,18.5,14.5,24.5,25.1
		c6,10.6,9,22.5,9,35.5s-3.1,24.9-9.2,35.6c-6.1,10.7-14.5,19.1-25.2,25.2c-10.7,6.1-22.6,9.2-35.7,9.2s-25-3.1-35.7-9.2
		c-10.7-6.1-19.1-14.5-25.2-25.2c-6.1-10.7-9.2-22.6-9.2-35.6v-59C1341.5,94.7,1341.5,94,1341.7,93.5z M1411.6,207.2
		c9.6,0,18.3-2.3,26.1-6.9c7.8-4.6,14-10.9,18.4-18.8c4.5-7.9,6.7-16.9,6.7-26.7c0-9.9-2.2-18.8-6.7-26.7
		c-4.5-7.9-10.6-14.2-18.4-18.7c-7.8-4.5-16.5-6.8-26.1-6.8c-13.3,0-24.6,4.2-33.9,12.5c-9.3,8.4-14.8,19.1-16.5,32.1
		c0,0.5-0.1,0.9-0.3,1.3c-0.2,1.3-0.3,3.4-0.3,6.3c0,9.9,2.2,18.8,6.7,26.7c4.5,7.9,10.5,14.2,18.3,18.8
		C1393.3,204.9,1402,207.2,1411.6,207.2z"/>
</g>
</svg>
